<?xml version="1.0" standalone="no"?>
<!DOCTYPE svg PUBLIC "-//W3C//DTD SVG 20010904//EN"
 "http://www.w3.org/TR/2001/REC-SVG-20010904/DTD/svg10.dtd">
<svg version="1.0" xmlns="http://www.w3.org/2000/svg"
 width="338.000000pt" height="332.000000pt" viewBox="0 0 338.000000 332.000000"
 preserveAspectRatio="xMidYMid meet">

<g transform="translate(0.000000,332.000000) scale(0.100000,-0.100000)"
fill="#d00200" stroke="none">
<path d="M0 1660 l0 -1660 1690 0 1690 0 0 1660 0 1660 -1690 0 -1690 0 0
-1660z m1212 943 c17 -15 18 -42 18 -447 l0 -431 448 448 447 447 141 0 141 0
12 -27 c12 -27 8 -31 -341 -380 -194 -194 -352 -359 -352 -366 1 -8 35 -63 76
-123 42 -60 102 -147 134 -194 144 -210 279 -405 405 -588 134 -193 137 -198
123 -225 l-15 -27 -134 0 c-127 0 -135 1 -151 23 -15 20 -62 89 -364 537 -61
91 -148 220 -194 286 l-82 121 -147 -142 -147 -142 0 -319 c0 -273 -2 -323
-16 -342 -14 -20 -23 -22 -116 -22 -80 0 -105 3 -120 17 -17 15 -18 58 -18
953 0 715 3 939 12 948 8 8 49 12 117 12 83 0 108 -3 123 -17z"/>
</g>
</svg>
